<svg width="284" height="50" viewBox="0 0 284 50" fill="none" xmlns="http://www.w3.org/2000/svg">
<path d="M3.10547 17.7011C3.10547 28.8056 3.11881 31.6565 3.16328 31.6956C3.20775 31.7347 3.92368 32.1469 4.63963 32.5418C4.73746 32.5982 4.99982 32.7457 5.21771 32.8716C5.44005 32.9931 5.69797 33.1406 5.7958 33.1927C5.89363 33.2491 6.29385 33.4704 6.68516 33.6917C7.07648 33.913 7.48559 34.143 7.59231 34.2038C7.70348 34.2645 7.8947 34.3686 8.01477 34.4424C8.13928 34.5162 8.42387 34.6724 8.64177 34.7982C9.83797 35.4708 11.2076 36.2389 11.421 36.3604C11.5545 36.4385 11.8746 36.6164 12.1325 36.7597C12.3905 36.9028 13.1508 37.3324 13.8223 37.7143C14.4938 38.0962 15.1341 38.4563 15.2453 38.5171C15.3565 38.5779 15.7656 38.8078 16.1569 39.0292C16.9351 39.4718 17.6288 39.858 17.8689 39.9925C17.9534 40.0402 18.2736 40.2225 18.5804 40.396C18.8873 40.5696 19.4076 40.8603 19.7366 41.0469C22.1068 42.3791 22.9161 42.8348 23.6276 43.2384C23.8499 43.3642 24.1078 43.5074 24.2057 43.5638C24.5258 43.7373 25.5753 44.3275 25.9621 44.5532C26.1711 44.6703 26.4291 44.8179 26.5402 44.8786C26.896 45.0739 27.0027 45.1303 27.4341 45.382C27.6697 45.5165 27.8832 45.625 27.9099 45.625C27.9499 45.625 27.9632 42.2446 27.9632 31.6825C27.9632 24.0192 27.9455 17.7228 27.9277 17.7011C27.9009 17.662 27.4074 17.3713 26.5625 16.8983C26.4913 16.8593 26.2201 16.7074 25.9621 16.5642C25.7043 16.421 24.9838 16.0131 24.3613 15.6616C23.7388 15.3101 23.1562 14.9847 23.0717 14.9369C22.756 14.759 20.5948 13.544 20.3147 13.3834C19.6165 12.9885 18.0513 12.1033 17.8689 12.0035C17.7578 11.9471 17.5577 11.8343 17.4242 11.7561C17.1174 11.5783 15.561 10.6973 15.2809 10.5455C15.1653 10.4847 14.8496 10.3068 14.5783 10.1506C14.307 9.99437 14.0758 9.86854 14.0713 9.86854C14.0624 9.86854 13.8802 9.76438 13.6622 9.63855C13.4443 9.51267 13.1553 9.34778 13.0219 9.27401C12.8885 9.20023 12.6528 9.0701 12.5016 8.98329C11.8569 8.62311 11.6567 8.50596 11.4655 8.4018C11.3543 8.34107 10.9141 8.09373 10.4872 7.8507C9.64674 7.37337 8.53949 6.7485 7.619 6.2321C7.30328 6.05421 6.92085 5.83724 6.7741 5.75479C6.62735 5.67235 6.43614 5.5682 6.35165 5.52047C6.26716 5.47273 5.61793 5.10389 4.90643 4.70466C3.31447 3.80641 3.21219 3.75 3.15438 3.75C3.11881 3.75 3.10547 7.92447 3.10547 17.7011Z" fill="#FE6601"/>
<path d="M54.6855 17.7011C54.6855 28.8056 54.6725 31.6565 54.6292 31.6956C54.5858 31.7347 53.8878 32.1469 53.1897 32.5418C53.0943 32.5982 52.8385 32.7457 52.6261 32.8716C52.4093 32.9931 52.1578 33.1406 52.0625 33.1927C51.9671 33.2491 51.5768 33.4704 51.1953 33.6917C50.8138 33.913 50.4149 34.143 50.3108 34.2038C50.2025 34.2645 50.0161 34.3686 49.899 34.4424C49.7775 34.5162 49.5001 34.6724 49.2877 34.7982C48.1214 35.4708 46.7859 36.2389 46.5779 36.3604C46.4478 36.4385 46.1356 36.6164 45.8842 36.7597C45.6327 36.9028 44.8913 37.3324 44.2366 37.7143C43.5819 38.0962 42.9576 38.4563 42.8492 38.5171C42.7408 38.5779 42.3419 38.8078 41.9604 39.0292C41.2017 39.4718 40.5253 39.858 40.2912 39.9925C40.2088 40.0402 39.8966 40.2225 39.5974 40.396C39.2983 40.5696 38.791 40.8603 38.4702 41.0469C36.1593 42.3791 35.3702 42.8348 34.6765 43.2384C34.4597 43.3642 34.2083 43.5074 34.1129 43.5638C33.8007 43.7373 32.7774 44.3275 32.4002 44.5532C32.1965 44.6703 31.945 44.8179 31.8366 44.8786C31.4898 45.0739 31.3857 45.1303 30.9652 45.382C30.7354 45.5165 30.5272 45.625 30.5012 45.625C30.4623 45.625 30.4492 42.2446 30.4492 31.6826C30.4492 24.0193 30.4666 17.7228 30.4839 17.7011C30.5099 17.662 30.9912 17.3713 31.8149 16.8983C31.8843 16.8593 32.1488 16.7074 32.4002 16.5642C32.6517 16.421 33.3541 16.0131 33.9611 15.6616C34.5681 15.3101 35.136 14.9847 35.2184 14.9369C35.5263 14.759 37.6334 13.544 37.9066 13.3834C38.5873 12.9885 40.1134 12.1033 40.2912 12.0035C40.3995 11.9471 40.5947 11.8343 40.7247 11.7561C41.0239 11.5783 42.5414 10.6973 42.8145 10.5455C42.9273 10.4847 43.2351 10.3068 43.4995 10.1506C43.764 9.99437 43.9895 9.86854 43.9938 9.86854C44.0025 9.86854 44.1802 9.76438 44.3927 9.63855C44.6051 9.51267 44.8869 9.34778 45.017 9.27401C45.1471 9.20024 45.3769 9.0701 45.5243 8.98329C46.1529 8.62311 46.3481 8.50596 46.5345 8.4018C46.6429 8.34107 47.0721 8.09373 47.4884 7.8507C48.3078 7.37337 49.3874 6.7485 50.2848 6.23216C50.5927 6.05421 50.9655 5.83724 51.1086 5.75479C51.2517 5.67235 51.4382 5.5682 51.5205 5.52047C51.6029 5.47273 52.2359 5.10389 52.9296 4.70466C54.4818 3.80641 54.5815 3.75 54.6378 3.75C54.6725 3.75 54.6855 7.92447 54.6855 17.7011Z" fill="#FE6601"/>
<path d="M70.8438 36.25V12.5H79.5423C81.7772 12.5 83.4947 13.0541 84.6949 14.1625C85.8952 15.2482 86.4956 16.7411 86.4956 18.6411C86.4956 19.9304 86.2553 21.0161 85.7753 21.8982C85.3134 22.7804 84.6859 23.4589 83.8916 23.9339C83.0972 24.4089 82.2384 24.6464 81.3153 24.6464L81.8139 23.6286C82.922 23.6286 83.9006 23.8661 84.7504 24.3411C85.6001 24.8161 86.274 25.5173 86.7726 26.4446C87.2713 27.3494 87.5206 28.4804 87.5206 29.8375C87.5206 31.8732 86.8924 33.4566 85.6368 34.5875C84.3992 35.6959 82.5529 36.25 80.0964 36.25H70.8438ZM73.614 33.5018H79.9855C81.5182 33.5018 82.6914 33.1851 83.5037 32.5518C84.3161 31.9184 84.7227 30.9232 84.7227 29.5661C84.7227 28.1863 84.3161 27.1798 83.5037 26.5464C82.6914 25.9131 81.5182 25.5964 79.9855 25.5964H73.3647V22.8482H79.293C80.6968 22.8482 81.7862 22.5316 82.5619 21.8982C83.3375 21.2649 83.7254 20.3149 83.7254 19.0482C83.7254 17.7816 83.3375 16.8316 82.5619 16.1982C81.7862 15.5649 80.6968 15.2482 79.293 15.2482H73.614V33.5018ZM98.1812 36.25V24.375V12.5H100.951V36.25H98.1812ZM113.129 36.25V12.5H115.899V33.2982H126.398V36.25H113.129ZM135.949 36.25V12.5H138.719V36.25H135.949ZM150.896 36.25V12.5H153.168L161.866 30.4482H160.647L169.235 12.5H171.507L171.534 36.25H168.875L168.847 17.6232H169.484L161.839 33.3661H160.564L152.863 17.6232H153.555V36.25H150.896ZM186.163 30.5161L186.025 26.3768L197.023 12.5H200.181L191.676 23.4929L190.125 25.5964L186.163 30.5161ZM183.725 36.25V12.5H186.496V36.25H183.725ZM197.466 36.25L189.515 24.9179L191.371 22.4071L200.707 36.25H197.466ZM206.287 36.25L215.069 12.5H217.811L226.621 36.25H223.712L215.872 14.4H216.98L209.14 36.25H206.287ZM210.027 30.3125L210.775 27.5982H221.69L222.493 30.3125H210.027ZM235.885 36.25V12.5H238.157L250.983 32.0089H249.792V12.5H252.562V36.25H250.29L237.464 16.7411H238.655V36.25H235.885ZM261.801 36.25L270.583 12.5H273.325L282.135 36.25H279.226L271.386 14.4H272.494L264.655 36.25H261.801ZM265.541 30.3125L266.289 27.5982H277.204L278.007 30.3125H265.541Z" fill="#FE6601"/>
</svg>
